<?xml version="1.0" standalone="no"?>
<!DOCTYPE svg PUBLIC "-//W3C//DTD SVG 20010904//EN"
 "http://www.w3.org/TR/2001/REC-SVG-20010904/DTD/svg10.dtd">
<svg version="1.0" xmlns="http://www.w3.org/2000/svg"
 width="700.000000pt" height="700.000000pt" viewBox="0 0 700.000000 700.000000"
 preserveAspectRatio="xMidYMid meet">
<metadata>
Created by potrace 1.11, written by Peter Selinger 2001-2013
</metadata>
<g transform="translate(0.000000,700.000000) scale(0.100000,-0.100000)"
fill="#000000" stroke="none">
<path d="M876 6424 c-129 -31 -238 -130 -293 -265 -17 -42 -18 -174 -20 -2629
-1 -1647 1 -2603 8 -2635 27 -143 141 -267 288 -315 54 -18 154 -19 2623 -19
1833 -1 2582 2 2620 10 162 34 297 167 328 325 13 66 13 5119 0 5197 -26 161
-152 294 -315 333 -90 21 -5151 19 -5239 -2z m2687 -1354 c24 -63 73 -189 107
-280 34 -91 67 -169 71 -174 5 -6 9 -18 9 -28 0 -10 5 -26 10 -36 6 -9 53
-129 105 -266 52 -137 96 -250 97 -252 3 -2 148 -11 323 -19 86 -5 263 -14
370 -20 282 -17 487 -27 542 -29 24 -1 43 -4 43 -7 0 -4 -19 -22 -42 -40 -55
-45 -388 -316 -413 -338 -11 -9 -67 -55 -125 -101 -58 -47 -114 -93 -125 -102
-11 -10 -49 -40 -83 -68 -35 -28 -69 -56 -76 -63 -7 -7 -36 -30 -64 -52 -29
-21 -52 -44 -52 -50 0 -6 7 -38 15 -70 9 -33 36 -136 60 -230 24 -93 58 -224
75 -290 17 -66 58 -223 90 -350 33 -126 64 -245 69 -262 5 -18 8 -33 5 -33 -5
0 -152 95 -366 235 -59 38 -126 82 -150 97 -24 15 -52 33 -62 40 -62 41 -399
259 -443 287 -61 38 -35 49 -267 -103 -94 -62 -202 -133 -241 -158 -38 -25
-104 -67 -145 -94 -41 -27 -79 -51 -85 -54 -5 -3 -68 -44 -140 -90 -71 -47
-153 -101 -182 -119 -49 -32 -72 -38 -64 -16 7 19 277 1064 298 1153 8 35 11
67 7 71 -5 4 -83 68 -174 142 -91 73 -167 136 -170 139 -3 3 -41 35 -85 70
-346 278 -536 437 -536 447 1 4 18 8 38 9 59 2 302 15 368 19 33 2 114 7 180
10 66 4 145 8 175 10 30 2 120 7 200 11 80 3 159 7 175 9 17 2 53 3 81 4 l51
1 76 198 c42 108 121 316 177 462 55 146 105 274 110 285 5 11 28 69 51 130
49 133 51 136 60 105 4 -14 27 -77 52 -140z"/>
</g>
</svg>
